<svg width="25" height="24" fill="none" xmlns="http://www.w3.org/2000/svg"><path d="M16.17 7.5a.188.188 0 0 0-.188-.188h-1.277c-.07 0-.136.04-.166.104l-1.986 3.956h-.077l-1.985-3.956a.188.188 0 0 0-.167-.104H9.02a.187.187 0 0 0-.09.024.186.186 0 0 0-.074.253l2.435 4.49H9.954a.188.188 0 0 0-.187.188v.635c0 .104.084.188.187.188h1.781v.914h-1.78a.188.188 0 0 0-.188.187v.636c0 .103.084.187.187.187h1.781V16.5a.19.19 0 0 0 .188.188h1.17a.188.188 0 0 0 .187-.188v-1.488h1.788a.188.188 0 0 0 .188-.188v-.635a.188.188 0 0 0-.188-.187H13.28v-.915h1.788a.188.188 0 0 0 .188-.187v-.635a.188.188 0 0 0-.188-.188h-1.35l2.43-4.49a.215.215 0 0 0 .022-.087ZM4.2 11.817a8.266 8.266 0 0 1 2.426-5.681 8.263 8.263 0 0 1 5.86-2.43 8.18 8.18 0 0 1 3.224.651 8.265 8.265 0 0 1 2.635 1.779c.234.234.452.48.654.736l-1.172.916a.187.187 0 0 0 .07.33l3.675.898a.188.188 0 0 0 .232-.18l.019-3.785a.186.186 0 0 0-.303-.148l-1.12.877a10.017 10.017 0 0 0-7.912-3.858c-5.496 0-9.966 4.408-10.067 9.886A.188.188 0 0 0 2.61 12h1.406c.1 0 .183-.082.185-.183ZM22.39 12h-1.406a.19.19 0 0 0-.188.183 8.266 8.266 0 0 1-2.425 5.681 8.265 8.265 0 0 1-5.86 2.43 8.265 8.265 0 0 1-5.86-2.43 8.39 8.39 0 0 1-.653-.736l1.17-.916a.187.187 0 0 0-.07-.33l-3.676-.898a.188.188 0 0 0-.232.18l-.019 3.79c0 .157.18.246.303.148l1.12-.877a10.043 10.043 0 0 0 7.917 3.853c5.496 0 9.966-4.409 10.067-9.886a.189.189 0 0 0-.115-.177.188.188 0 0 0-.073-.015Z" fill="#BFBFBF"/></svg>