<svg width="24" height="24" fill="none" xmlns="http://www.w3.org/2000/svg"><path d="m22.184 11.837-9.056-9.051-.607-.607a.738.738 0 0 0-1.04 0l-9.664 9.658a1.498 1.498 0 0 0-.44 1.078 1.514 1.514 0 0 0 1.52 1.484h.997v7.633h16.214V14.4h1.017c.4 0 .778-.157 1.061-.44a1.491 1.491 0 0 0 .439-1.062c0-.399-.157-.776-.44-1.06Zm-8.871 8.508h-2.625v-4.781h2.625v4.781Zm5.107-7.634v7.634h-3.607v-5.344a.937.937 0 0 0-.938-.937h-3.75a.937.937 0 0 0-.937.937v5.344H5.581v-7.634h-2.25l8.672-8.664.541.541 8.128 8.123H18.42Z" fill="#007AEA"/></svg>